<?xml version="1.0" encoding="UTF-8" standalone="no"?>
<svg
   xmlns:dc="http://purl.org/dc/elements/1.1/"
   xmlns:cc="http://creativecommons.org/ns#"
   xmlns:rdf="http://www.w3.org/1999/02/22-rdf-syntax-ns#"
   xmlns:svg="http://www.w3.org/2000/svg"
   xmlns="http://www.w3.org/2000/svg"
   xmlns:sodipodi="http://sodipodi.sourceforge.net/DTD/sodipodi-0.dtd"
   xmlns:inkscape="http://www.inkscape.org/namespaces/inkscape"
   version="1.0"
   x="0px"
   y="0px"
   viewBox="0 0 78.792099 80.93158"
   enable-background="new 0 0 100 100"
   xml:space="preserve"
   id="svg4332"
   inkscape:version="0.91 r13725"
   sodipodi:docname="mining.svg"
   width="78.792099"
   height="80.93158"><metadata
     id="metadata4364"><rdf:RDF><cc:Work
         rdf:about=""><dc:format>image/svg+xml</dc:format><dc:type
           rdf:resource="http://purl.org/dc/dcmitype/StillImage" /><dc:title></dc:title></cc:Work></rdf:RDF></metadata><defs
     id="defs4362" /><sodipodi:namedview
     pagecolor="#ffffff"
     bordercolor="#666666"
     borderopacity="1"
     objecttolerance="10"
     gridtolerance="10"
     guidetolerance="10"
     inkscape:pageopacity="0"
     inkscape:pageshadow="2"
     inkscape:window-width="640"
     inkscape:window-height="480"
     id="namedview4360"
     showgrid="false"
     inkscape:zoom="1.888"
     inkscape:cx="38.542097"
     inkscape:cy="31.455376"
     inkscape:window-x="0"
     inkscape:window-y="0"
     inkscape:window-maximized="0"
     inkscape:current-layer="svg4332"
     fit-margin-top="5"
     fit-margin-left="0"
     fit-margin-right="0"
     fit-margin-bottom="5" /><g
     id="g4334"
     transform="translate(-11.457904,-13.023806)"><g
       id="g4336"><rect
         x="7.8597517"
         y="51.552563"
         transform="matrix(0.7071068,-0.7071068,0.7071068,0.7071068,-30.552948,38.907116)"
         width="47.657635"
         height="9.5633345"
         id="rect4338" /><polygon
         points="61.790588,21.108093 56.891724,24.368774 63.654053,31.131042 66.914673,26.232239 "
         id="polygon4340" /><path
         d="m 54.871765,40.536865 c 5.358704,5.996155 10.087158,12.559815 13.968811,19.591126 0.03534,0.06403 0.07068,0.128112 0.10553,0.192443 -0.180786,-0.333435 0.575378,-2.365478 0.63855,-2.772399 0.375488,-2.416443 0.364258,-4.896729 0.01587,-7.315369 C 68.184875,40.404114 60.903503,32.676269 53.728699,26.34552 47.179443,20.566772 38.293762,16.446716 29.345215,18.607361 c -0.264038,0.06372 -1.445679,0.576233 -1.642823,0.46936 10.054444,5.450134 19.463013,12.837158 27.169373,21.460144 z"
         id="path4342"
         inkscape:connector-curvature="0" /><path
         d="m 52.886719,55.661133 c -0.554688,0.614746 -0.506836,1.563476 0.107422,2.118652 l 5.166992,4.666992 c 0.287109,0.259278 0.646484,0.386719 1.005859,0.386719 0.40918,0 0.817383,-0.166504 1.113281,-0.494629 0.554688,-0.614746 0.506836,-1.563476 -0.107421,-2.118652 l -5.166993,-4.666992 c -0.613281,-0.5542 -1.5625,-0.507813 -2.11914,0.10791 z"
         id="path4344"
         inkscape:connector-curvature="0" /><path
         d="m 76.738281,60.236328 c 0.177735,0.06885 0.360352,0.101563 0.541016,0.101563 0.601562,0 1.168945,-0.364746 1.399414,-0.958985 l 2.387695,-6.170898 c 0.298828,-0.772949 -0.08594,-1.641602 -0.858398,-1.94043 -0.767578,-0.297363 -1.640625,0.08496 -1.94043,0.857422 l -2.387695,6.170898 c -0.298828,0.77295 0.08594,1.641602 0.858398,1.94043 z"
         id="path4346"
         inkscape:connector-curvature="0" /><path
         d="m 55.919922,68.369141 c -0.05762,-0.827149 -0.801758,-1.461915 -1.601563,-1.390137 l -7.423828,0.524902 c -0.827148,0.05811 -1.449219,0.775391 -1.390625,1.602051 0.05566,0.790039 0.713867,1.394043 1.494141,1.394043 0.03613,0 0.07227,-9.77e-4 0.107422,-0.0039 l 7.423828,-0.524902 c 0.827148,-0.05811 1.449219,-0.775391 1.390625,-1.602051 z"
         id="path4348"
         inkscape:connector-curvature="0" /><polygon
         points="72.94458,78.301758 70.47168,88.955383 90.25,88.955383 86.628418,70.579285 "
         id="polygon4350" /><polygon
         points="71.585938,75.623535 84.234375,68.48584 68.433105,64.375 60.866699,70.328857 "
         id="polygon4352" /><polygon
         points="67.392273,88.955383 69.903137,78.138184 58.912476,72.709045 51.125,88.955383 "
         id="polygon4354" /></g></g></svg>