<?xml version="1.0" encoding="UTF-8" standalone="no"?>
<svg
   xmlns:dc="http://purl.org/dc/elements/1.1/"
   xmlns:cc="http://creativecommons.org/ns#"
   xmlns:rdf="http://www.w3.org/1999/02/22-rdf-syntax-ns#"
   xmlns:svg="http://www.w3.org/2000/svg"
   xmlns="http://www.w3.org/2000/svg"
   xmlns:sodipodi="http://sodipodi.sourceforge.net/DTD/sodipodi-0.dtd"
   xmlns:inkscape="http://www.inkscape.org/namespaces/inkscape"
   version="1.1"
   x="0px"
   y="0px"
   viewBox="0 0 89.906998 88.999999"
   enable-background="new 0 0 100 100"
   xml:space="preserve"
   id="svg4421"
   inkscape:version="0.91 r13725"
   sodipodi:docname="technology.svg"
   width="89.906998"
   height="89"><metadata
     id="metadata4445"><rdf:RDF><cc:Work
         rdf:about=""><dc:format>image/svg+xml</dc:format><dc:type
           rdf:resource="http://purl.org/dc/dcmitype/StillImage" /><dc:title></dc:title></cc:Work></rdf:RDF></metadata><defs
     id="defs4443" /><sodipodi:namedview
     pagecolor="#ffffff"
     bordercolor="#666666"
     borderopacity="1"
     objecttolerance="10"
     gridtolerance="10"
     guidetolerance="10"
     inkscape:pageopacity="0"
     inkscape:pageshadow="2"
     inkscape:window-width="640"
     inkscape:window-height="480"
     id="namedview4441"
     showgrid="false"
     fit-margin-top="5"
     fit-margin-left="5"
     fit-margin-right="5"
     fit-margin-bottom="5"
     inkscape:zoom="1.888"
     inkscape:cx="-21.253627"
     inkscape:cy="27.100997"
     inkscape:window-x="0"
     inkscape:window-y="0"
     inkscape:window-maximized="0"
     inkscape:current-layer="svg4421" /><g
     id="g4423"
     transform="translate(-5.0460012,-5.5)"><path
       d="m 70.947,51.604 c 0,-2.5 -2.034,-4.533 -4.534,-4.533 -2.499,0 -4.534,2.033 -4.534,4.533 0,2.5 2.035,4.534 4.534,4.534 2.5,0.001 4.534,-2.034 4.534,-4.534 z"
       id="path4425"
       inkscape:connector-curvature="0" /><path
       d="M 89.953,50.001 75.849,25.57 l 0,0.534 -9.79,0 -8.434,8.433 c 0.695,1.16 1.102,2.511 1.102,3.958 0,4.264 -3.469,7.734 -7.734,7.734 -4.264,0 -7.734,-3.471 -7.734,-7.734 0,-4.265 3.47,-7.734 7.734,-7.734 1.661,0 3.197,0.531 4.458,1.426 l 9.282,-9.282 9.575,0 -4.332,-7.505 -25.042,0 0,13.484 -14.888,14.887 c 0.642,1.127 1.013,2.427 1.013,3.813 0,4.265 -3.47,7.733 -7.734,7.733 -4.265,0 -7.734,-3.469 -7.734,-7.733 0,-4.264 3.469,-7.734 7.734,-7.734 1.72,0 3.306,0.571 4.592,1.525 l 13.816,-13.816 0,-12.16 -11.71,0 -19.977,34.602 10.593,18.346 18.343,-18.342 19.866,0 c 0.74,-3.499 3.85,-6.135 7.565,-6.135 4.265,0 7.733,3.471 7.733,7.734 0,4.265 -3.469,7.734 -7.733,7.734 -3.716,0 -6.825,-2.635 -7.565,-6.134 l -18.541,0 -18.011,18.013 7.728,13.384 14.155,0 0,-6.6 c -3.499,-0.738 -6.134,-3.85 -6.134,-7.564 0,-4.266 3.469,-7.734 7.734,-7.734 3.716,0 6.826,2.635 7.565,6.134 l 25.547,0 0,0.325 11.062,-19.161 z"
       id="path4427"
       inkscape:connector-curvature="0" /><path
       d="m 18.792,47.584 c 0,2.5 2.034,4.534 4.534,4.534 2.5,0 4.534,-2.034 4.534,-4.534 0,-2.499 -2.034,-4.534 -4.534,-4.534 -2.5,0 -4.534,2.035 -4.534,4.534 z"
       id="path4429"
       inkscape:connector-curvature="0" /><path
       d="m 50.312,70.437 c 0,-2.5 -2.034,-4.534 -4.534,-4.534 -2.5,0 -4.534,2.034 -4.534,4.534 0,2.499 2.034,4.533 4.534,4.533 2.5,0 4.534,-2.034 4.534,-4.533 z"
       id="path4431"
       inkscape:connector-curvature="0" /><path
       d="m 50.993,33.961 c -2.5,0 -4.534,2.034 -4.534,4.534 0,2.499 2.034,4.533 4.534,4.533 2.5,0 4.534,-2.034 4.534,-4.533 -10e-4,-2.5 -2.035,-4.534 -4.534,-4.534 z"
       id="path4433"
       inkscape:connector-curvature="0" /><path
       d="m 47.378,78.001 0,6.6 22.598,0 7.255,-12.564 -23.887,0 c -0.63,2.982 -2.984,5.335 -5.966,5.964 z"
       id="path4435"
       inkscape:connector-curvature="0" /></g></svg>